<svg xmlns="http://www.w3.org/2000/svg" viewBox="0 0 64 64" role="img" aria-label="Arbexita">
  <defs>
    <linearGradient id="g" x1="0" y1="0" x2="1" y2="1">
      <stop offset="0" stop-color="#1b4dff"/>
      <stop offset="1" stop-color="#00b8d9"/>
    </linearGradient>
  </defs>
  <rect x="6" y="6" width="52" height="52" rx="14" fill="url(#g)"/>
  <path d="M20 40c0-10 7-18 16-18 4 0 8 1.5 11 4.1l-4.6 4.6c-1.7-1.3-3.9-2.1-6.4-2.1-5.1 0-9.2 4.3-9.2 9.4h-6.8z" fill="#fff" opacity="0.95"/>
  <path d="M46 32c0 10-7 18-16 18-4 0-8-1.5-11-4.1l4.6-4.6c1.7 1.3 3.9 2.1 6.4 2.1 5.1 0 9.2-4.3 9.2-9.4H46z" fill="#061022" opacity="0.9"/>
</svg>
