<svg xmlns="http://www.w3.org/2000/svg" viewBox="0 0 240 48" role="img" aria-label="Arbexita">
  <defs>
    <linearGradient id="g" x1="0" y1="0" x2="1" y2="1">
      <stop offset="0" stop-color="#1b4dff"/>
      <stop offset="1" stop-color="#00b8d9"/>
    </linearGradient>
  </defs>
  <g transform="translate(0,0)">
    <rect x="0" y="0" width="48" height="48" rx="14" fill="url(#g)"/>
    <path d="M14 30c0-8 5.6-14.5 12.8-14.5 3.2 0 6.2 1.2 8.7 3.3l-3.7 3.7c-1.4-1-3.1-1.6-5-1.6-4.1 0-7.4 3.5-7.4 7.6H14z" fill="#fff" opacity="0.95"/>
    <path d="M34 24c0 8-5.6 14.5-12.8 14.5-3.2 0-6.2-1.2-8.7-3.3l3.7-3.7c1.4 1 3.1 1.6 5 1.6 4.1 0 7.4-3.5 7.4-7.6H34z" fill="#061022" opacity="0.9"/>
  </g>
  <text x="62" y="30" font-family="ui-sans-serif, system-ui, -apple-system, Segoe UI, Roboto, Helvetica, Arial" font-weight="800" font-size="22" fill="#0f172a">Arbexita</text>
  <text x="62" y="42" font-family="ui-sans-serif, system-ui, -apple-system, Segoe UI, Roboto, Helvetica, Arial" font-weight="600" font-size="10" fill="#475569">SAM • Compliance • Inspektionsredo</text>
</svg>
